<svg fill="currentColor" id="joystick"
     viewBox="0 0 14 14" xmlns="http://www.w3.org/2000/svg">
  <path d="M4.6,2.3c0,0-0.2,0-0.3,0C3.8,2.4,3.2,2.6,3,2.7C2.8,2.8,2.4,3.2,2.1,3.6c-0.3,0.5-0.7,1.3-1,2.3C0.8,6.8,0.6,8,0.4,9.3
	c-0.1,0.7,0,1,0.3,1.4c0.2,0.3,0.5,0.5,0.9,0.7c0.2,0,0.3,0.1,0.5,0.1c0.3,0,0.3,0,0.5-0.1c0.6-0.2,0.9-0.5,1.8-1.7
	c0.3-0.5,0.7-0.9,0.7-0.9c0.3-0.3,1-0.5,1.8-0.5c0.8,0,1.6,0.2,1.9,0.5c0.1,0.1,0.4,0.5,0.7,0.9c0.8,1.1,1.2,1.5,1.8,1.7
	c0.2,0.1,0.3,0.1,0.5,0.1c0.3,0,0.3,0,0.5-0.1c0.5-0.2,0.9-0.5,1.1-1c0.1-0.3,0.1-0.5,0.1-1c-0.1-1.3-0.4-2.5-0.7-3.5
	c-0.3-1-0.7-1.7-1-2.2c-0.2-0.3-0.6-0.7-0.9-0.9c-0.4-0.2-1.2-0.3-1.8-0.4C8.4,2.3,8,2.6,7.8,3.1L7.7,3.4l-0.1,0c-0.2,0-1,0-1.1,0
	l-0.1,0L6.2,3.1C6,2.7,5.8,2.5,5.4,2.4C5.2,2.4,4.7,2.3,4.6,2.3z M5.2,3.1c0.1,0,0.2,0.1,0.2,0.1c0,0,0.1,0.2,0.2,0.3
	c0.2,0.4,0.3,0.6,0.6,0.6c0.2,0,1.5,0,1.7,0c0.3-0.1,0.4-0.2,0.6-0.6c0.1-0.1,0.1-0.3,0.2-0.3c0.2-0.2,0.9-0.1,1.7,0.1
	c0.4,0.1,0.5,0.3,0.8,0.7c0.4,0.6,0.9,2,1.2,3c0.2,1,0.5,2.7,0.4,3c-0.1,0.3-0.3,0.5-0.6,0.6c-0.4,0.2-0.9,0-1.3-0.5
	c-0.1-0.1-0.4-0.6-0.8-1C9.8,8.7,9.5,8.3,9.5,8.2C9.1,7.9,8.6,7.6,7.9,7.5c-0.4-0.1-1.4-0.1-1.8,0C5.4,7.6,4.9,7.9,4.5,8.2
	C4.5,8.3,4.2,8.7,3.8,9.1s-0.7,0.9-0.8,1c-0.4,0.5-0.9,0.6-1.3,0.5c-0.3-0.1-0.5-0.3-0.6-0.6C1.1,9.7,1.4,8,1.6,7
	c0.2-1,0.8-2.4,1.2-3c0.4-0.6,0.5-0.7,1.4-0.8C4.6,3.1,4.9,3.1,5.2,3.1z"/>
  <path d="M3.7,4C3.6,4.1,3.6,4.1,3.6,4.6l0,0.5l-0.5,0c-0.6,0-0.6,0-0.6,0.8c0,0.6,0,0.6,0.1,0.7c0.1,0.1,0.1,0.1,0.6,0.1l0.5,0v0.5
	c0,0.6,0,0.6,0.8,0.6c0.8,0,0.8,0,0.8-0.6l0-0.5l0.5,0c0.6,0,0.6,0,0.6-0.8c0-0.8,0-0.8-0.6-0.8H5.1V4.6c0-0.2,0-0.5,0-0.5
	C5,4,4.9,3.9,4.3,3.9C3.8,3.9,3.8,3.9,3.7,4z M4.6,4.9c0,0.4,0,0.5,0.1,0.6c0.1,0.1,0.1,0.1,0.6,0.1h0.5v0.3v0.3H5.3
	c-0.4,0-0.5,0-0.6,0.1C4.6,6.3,4.6,6.3,4.6,6.8v0.5H4.3H4.1V6.7c0-0.5,0-0.5-0.1-0.6C3.9,6.1,3.8,6.1,3.4,6.1H3V5.8V5.6h0.5
	c0.6,0,0.6,0,0.6-0.6V4.5h0.3h0.3L4.6,4.9L4.6,4.9z"/>
  <path d="M9.4,4C9.2,4.1,9,4.4,9,4.7C9,4.9,9,5.1,9.2,5.2C9.4,5.4,9.7,5.4,10,5.3c0.1,0,0.2-0.1,0.2-0.1c0.1-0.1,0.2-0.3,0.2-0.5
	c0-0.2-0.1-0.4-0.2-0.5C10,3.9,9.7,3.9,9.4,4z M9.8,4.4c0.1,0,0.2,0.1,0.2,0.2c0,0.1,0,0.2-0.2,0.3C9.5,5,9.3,4.6,9.5,4.4
	C9.7,4.4,9.6,4.4,9.8,4.4z"/>
  <path d="M8.1,5.2C7.7,5.4,7.6,6,7.9,6.3C8,6.5,8.2,6.6,8.4,6.6c0.8,0,1-1.1,0.3-1.4C8.6,5.1,8.3,5.1,8.1,5.2z M8.6,5.6
	C8.7,5.7,8.8,5.9,8.6,6C8.5,6.2,8.2,6.1,8.2,5.8C8.2,5.6,8.4,5.5,8.6,5.6z"/>
  <path d="M10.5,5.2c-0.3,0.2-0.5,0.6-0.3,1c0.2,0.5,0.8,0.6,1.2,0.2c0.2-0.3,0.3-0.6,0.1-0.9c-0.1-0.2-0.3-0.3-0.6-0.3
	C10.7,5.1,10.6,5.1,10.5,5.2z M11,5.6c0.3,0.1,0.2,0.5-0.1,0.5c-0.3,0-0.4-0.4-0.1-0.5C10.8,5.6,10.9,5.6,11,5.6z"/>
  <path d="M9.5,6.3C9.2,6.5,9,6.7,9,7c0,0.4,0.3,0.8,0.7,0.8c0.6,0,0.9-0.6,0.6-1.1C10.1,6.4,9.7,6.2,9.5,6.3z M9.9,6.8
	c0.1,0.1,0.1,0.3,0,0.4C9.8,7.4,9.5,7.3,9.4,7.1C9.3,6.9,9.7,6.7,9.9,6.8z"/>
</svg>
